<?xml version="1.0"?>
<svg width="58" height="100" xmlns="http://www.w3.org/2000/svg" xmlns:svg="http://www.w3.org/2000/svg">
 <g>
  <title>Layer 1</title>
  <g id="svg_1">
   <path fill="#7f7f7f" id="svg_2" d="m20.087001,56.705l-9.992,43.295l4.77,0l2.84,-12.306l22.72,0l2.84,12.306l4.77,0l-9.992,-43.296c11.645,-3.792 20.087,-14.746 20.087,-27.64c0,-16.026 -13.039,-29.064 -29.065,-29.064c-16.026,0 -29.065,13.038 -29.065,29.065c0,12.894 8.442,23.848 20.087,27.64zm19.414,26.986l-20.872,0l2.155,-9.338l16.562,0l2.155,9.338zm-10.436,-62.526c-3.85,0 -6.971,3.121 -6.971,6.971c0,2.471 1.294,4.629 3.232,5.867l-2.117,9.174c-5.528,-2.303 -9.427,-7.758 -9.427,-14.111c0,-8.426 6.856,-15.282 15.282,-15.282s15.282,6.855 15.282,15.282c0,6.352 -3.898,11.808 -9.426,14.111l-2.117,-9.174c1.938,-1.238 3.231,-3.396 3.231,-5.866c0.002,-3.851 -3.119,-6.972 -6.969,-6.972zm0,27.83c0.811,0 1.607,-0.063 2.393,-0.158l1.011,4.379c-1.115,0.157 -2.246,0.266 -3.404,0.266c-1.158,0 -2.288,-0.109 -3.403,-0.266l1.011,-4.379c0.785,0.095 1.581,0.158 2.392,0.158zm-1.341,-4.716l1.341,-5.811l1.341,5.81c-0.443,0.039 -0.888,0.068 -1.341,0.068c-0.453,0.001 -0.898,-0.028 -1.341,-0.067zm-3.117,13.509c1.454,0.225 2.943,0.342 4.458,0.342c1.516,0 3.005,-0.117 4.459,-0.342l2.897,12.553l-14.712,0.008l2.898,-12.561zm4.458,-53.14c13.464,0 24.418,10.953 24.418,24.417c0,10.688 -6.913,19.771 -16.494,23.072l-1.016,-4.401c7.589,-2.818 13.02,-10.113 13.02,-18.67c0,-10.989 -8.94,-19.93 -19.929,-19.93s-19.93,8.941 -19.93,19.93c0,8.558 5.432,15.852 13.022,18.67l-1.016,4.401c-9.581,-3.301 -16.494,-12.384 -16.494,-23.072c0.001,-13.464 10.955,-24.417 24.419,-24.417z"/>
  </g>
 </g>
</svg>